<svg width="164" height="48" viewBox="0 0 164 48" fill="none" xmlns="http://www.w3.org/2000/svg">
<path fill-rule="evenodd" clip-rule="evenodd" d="M163.411 41.2919L163.41 41.2941C163.737 41.4442 163.924 41.6296 163.968 41.8441C164.03 42.1563 163.8 42.5396 163.562 42.794L163.556 42.8009L163.548 42.8098C163.546 42.8134 163.543 42.817 163.54 42.8206C160.678 46.5318 156.283 46.65 156.234 46.6507C151.621 46.7703 149.942 43.7576 149.864 43.6106C149.859 43.5984 149.854 43.5867 149.847 43.5753C149.839 43.5614 149.829 43.5482 149.818 43.5355C146.678 39.9713 150.27 29.3912 150.718 28.4679C150.735 28.4438 150.748 28.4165 150.756 28.3871C151.512 25.7188 151.477 23.8298 150.654 22.7717C150.058 22.0058 149.24 21.9228 148.915 21.9228L148.889 21.9232C148.664 21.875 148.438 21.8506 148.218 21.8506C144.969 21.8506 143.465 27.0574 143.465 27.0779C142.477 32.2704 141.38 38.5234 140.728 45.6024C138.639 45.57 136.521 45.5229 134.47 45.4774C132.422 45.4317 130.372 45.3861 128.315 45.3538C129.135 39.0673 130.185 32.8862 131.202 26.9051L131.203 26.8937C132.681 18.1954 134.078 9.97461 134.802 1.56818C139.06 1.12878 142.973 0.614685 146.743 0C146.471 7.21948 145.563 13.4739 144.708 18.6524C144.688 18.7724 144.753 18.8906 144.866 18.9409C144.897 18.9546 144.93 18.9622 144.963 18.9641C144.994 18.9659 145.025 18.9626 145.054 18.9545C145.107 18.9402 145.155 18.9106 145.192 18.8672C146.97 16.7695 148.712 15.4075 150.317 14.5402L150.326 14.5355C151.842 13.7182 153.236 13.3424 154.426 13.2066C156.544 12.8438 159.086 12.9411 161.047 14.6433C161.375 14.8937 161.677 15.179 161.95 15.5048C162.53 16.1961 162.92 16.9919 163.186 17.7524C163.207 17.8117 163.23 17.8713 163.249 17.9296C163.389 18.4113 163.676 19.9874 163.178 23.898C162.892 25.5833 162.602 27.2571 162.317 28.8947C162.29 29.0492 162.264 29.2015 162.237 29.3557C162.236 29.3608 162.236 29.3656 162.235 29.3705L162.234 29.3786C161.951 31.0018 161.671 32.6178 161.397 34.2319C160.939 38.0021 161.815 39.8347 162.631 40.7077C162.906 41.0031 163.217 41.2186 163.411 41.2919ZM128.136 34.1197C128.206 34.1197 128.216 34.1362 128.221 34.1438C128.345 34.3428 128.079 35.1196 127.897 35.4637L127.895 35.4675L127.893 35.471L127.891 35.4739L127.885 35.4878C123.483 45.3284 114.441 46.939 111.774 47.1984L111.743 47.2016L111.699 47.2064L111.671 47.2097L111.648 47.2128C111.442 47.2178 111.24 47.22 111.04 47.22H111.037C99.2077 47.2192 96.3079 38.5588 95.6102 34.8357C95.5986 34.774 95.5881 34.7175 95.5764 34.6667C95.5711 34.6438 95.5654 34.622 95.5595 34.6014C95.5569 34.5925 95.5542 34.5838 95.5514 34.5753L95.5481 34.5656C94.9104 30.3463 95.7885 26.9875 96.8353 24.6721C96.835 24.6718 100.356 16.1359 109.654 13.1838C109.767 13.1469 109.879 13.1109 109.99 13.0764C110.013 13.0696 110.035 13.0617 110.058 13.0549L110.057 13.0563C112.846 12.203 114.94 12.1793 115.124 12.1793C115.143 12.1793 115.16 12.1794 115.176 12.1797L115.195 12.1802L115.224 12.1813L115.252 12.1829C122.032 12.2437 124.786 14.7815 125.27 15.2899L125.272 15.2924C125.281 15.3015 125.29 15.3117 125.302 15.3222C126.535 16.5832 127.132 18.0149 127.078 19.5788C126.978 22.4543 124.769 24.7522 124.657 24.8643C124.646 24.8729 124.636 24.8819 124.626 24.892C123.184 26.4026 121.431 27.1686 119.417 27.1686C117.988 27.1686 116.833 26.7709 116.368 26.5841C116.621 25.1046 116.547 22.9106 116.308 22.2891L116.329 22.2826C115.744 20.455 114.82 19.5284 113.584 19.5284C113.117 19.5284 112.663 19.6664 112.254 19.8619C112.254 19.8619 107.552 21.5479 108.035 29.9382C108.038 30.0064 108.043 30.073 108.047 30.1395L108.051 30.2048L108.051 30.2079L108.053 30.2467L108.055 30.2668C108.056 30.2944 108.057 30.322 108.06 30.3506C108.224 32.6068 108.869 34.1667 109.005 34.457L108.997 34.461C110.467 37.0524 112.84 38.3662 116.053 38.3662C120.954 38.3662 126.182 35.2798 126.961 34.6356L126.963 34.6392C127.679 34.1873 128.005 34.1197 128.136 34.1197ZM90.4392 12.3608H90.3641C90.2859 12.3608 90.2113 12.3278 90.1591 12.2706C90.1072 12.2135 90.0819 12.1373 90.0911 12.0612C90.4921 8.57629 90.8269 5.04254 91.0872 1.55194C89.1732 2.02295 86.7505 2.59668 84.2922 3.06659C83.5769 7.66235 80.4136 10.4653 74.8871 11.399C74.7484 11.4224 74.6069 11.4465 74.5121 11.4659C74.1464 13.4433 73.7678 15.4031 73.3674 17.475L73.3543 17.5428C74.5607 17.4789 75.7894 17.4746 77.0554 17.5306C77.1333 17.5339 77.2064 17.5698 77.2561 17.6291C77.3057 17.688 77.327 17.7649 77.3152 17.8403C77.0297 19.669 76.7352 21.5207 76.4371 23.3946L76.4265 23.4609C75.7355 27.8075 75.0211 32.3008 74.3574 36.8868C73.8678 39.6736 74.3485 41.9676 75.7858 43.7129C78.0963 46.5181 82.0797 46.9524 82.2477 46.9675H82.2511L82.257 46.9675L82.2617 46.9678C82.5176 46.9775 82.77 46.9822 83.0171 46.9822C87.7033 46.9822 91.6749 45.2031 94.2013 41.9726C94.2675 41.8882 94.3156 41.8268 94.3627 41.7844C95.4275 40.4949 95.329 40.1145 95.2981 40.0509C95.2297 39.9115 94.781 39.8921 94.2219 40.0279C94.2097 40.0309 94.1876 40.0353 94.1666 40.0386C94.1503 40.0411 94.1347 40.043 94.1249 40.043C93.4346 40.0491 92.7439 40.0441 92.0642 40.0297C90.0242 40.0067 88.5189 39.4294 87.5938 38.3135C86.2205 36.6587 86.6024 34.3591 86.6936 33.9153C87.1207 30.8928 87.6 27.8948 88.0639 24.9955C88.3917 22.9459 88.7307 20.8266 89.0534 18.6854C89.074 18.5499 89.1928 18.4475 89.3361 18.4554C89.5197 18.4617 89.7037 18.4666 89.8882 18.47C90.0925 18.4739 90.2975 18.4759 90.5031 18.4759C92.652 18.4759 94.6431 18.251 96.5839 17.7883C96.7776 15.8381 96.9702 13.817 97.1705 11.6272C95.0287 12.1208 92.8222 12.3608 90.4392 12.3608ZM68.4176 36.6765C68.4379 36.7404 68.4379 36.9211 68.4379 37.0958C68.4386 38.1348 68.4393 40.5354 71.9493 42.1129C71.2476 43.7443 69.0834 47.1947 63.3661 46.9821C63.3493 46.9803 63.3329 46.9811 63.3169 46.9835L63.3056 46.9855C63.2891 46.9889 63.273 46.9939 63.2572 46.9996L63.2418 47.0002L63.218 47.0008C63.2046 47.001 63.1897 47.0011 63.1735 47.0011C62.9386 47.0011 57.3995 46.9202 56.226 39.8754C56.2234 39.8602 56.2195 39.8454 56.2144 39.8309C56.2109 39.8212 56.207 39.8117 56.2024 39.8024C56.2 39.7973 56.1974 39.7923 56.1947 39.7874C56.1461 39.7019 56.0491 39.6458 55.9487 39.6458C55.7698 39.6458 55.7212 39.7231 55.4518 40.1506C53.2321 43.6793 50.6311 45.864 47.6952 46.6871V46.6918C47.6952 46.6918 47.6813 46.6961 47.6547 46.7037C47.6361 46.709 47.6113 46.7159 47.5807 46.7242C47.5538 46.7314 47.5225 46.7396 47.4868 46.7485C47.4248 46.7642 47.3499 46.7822 47.2633 46.8013C47.2151 46.8126 47.1665 46.8224 47.1178 46.832L47.0786 46.8397L47.0717 46.8411C47.0457 46.8462 47.0195 46.8513 46.9935 46.8566L46.9325 46.8682L46.8674 46.88C46.2473 46.9979 45.6144 47.0632 44.966 47.0632C44.7484 47.0632 44.5271 47.0568 44.3025 47.0428C44.2825 47.0367 44.2594 47.0308 44.2344 47.0249C44.2122 47.0197 44.1882 47.0144 44.1636 47.009C41.4516 46.7956 37.8413 45.4282 35.8266 40.174L35.8284 40.1743C34.5864 37.3224 34.0045 33.3199 34.8419 27.6963C34.85 27.6668 34.861 27.6245 34.8738 27.5691C38.1691 13.801 47.8037 12.7311 50.6777 12.7311L50.8762 12.7321C50.8826 12.7312 50.8898 12.731 50.8972 12.7308C50.9022 12.7307 50.9074 12.7306 50.9122 12.7302L50.9188 12.7296C51.1909 12.7404 52.6685 12.9538 54.3027 13.816C56.552 15.0031 58.109 16.8461 58.9306 19.2938C58.9702 19.4124 59.0927 19.4888 59.2169 19.4781C59.3444 19.4669 59.4478 19.3713 59.4653 19.2478C59.6929 17.6907 59.8716 16.207 60.0112 14.7192C62.6052 14.3316 65.2653 13.8678 67.8406 13.4187L67.9143 13.4059C69.1205 13.1957 70.3298 12.9849 71.5405 12.7803C71.4393 13.7286 71.009 16.7371 70.5543 19.9144L70.5419 20.0026C69.5942 26.6268 68.415 34.8708 68.4059 36.5967C68.4059 36.6096 68.4067 36.6224 68.4085 36.6351C68.4103 36.649 68.4133 36.663 68.4176 36.6765ZM55.4291 30.8427C54.484 35.2444 52.0584 38.2023 49.3931 38.2023C49.1851 38.2023 48.9738 38.1847 48.7653 38.1491C47.5604 37.9397 46.6359 37.3735 46.0173 36.4649C44.9473 34.8963 44.8051 32.3495 45.5928 28.8959C46.6918 24.0914 48.9575 21.223 51.653 21.223C51.8886 21.223 52.1298 21.2453 52.3698 21.2888C53.3607 21.4738 54.1653 22.0131 54.7631 22.8929C55.933 24.6138 56.1697 27.4373 55.4291 30.8427ZM32.8041 34.1197C32.8735 34.1197 32.8842 34.1362 32.8886 34.1438C33.0125 34.3428 32.7467 35.1196 32.5651 35.4637C32.5615 35.4695 32.5585 35.4757 32.5554 35.4819L32.5526 35.4878C28.1513 45.3284 19.1086 46.939 16.4418 47.1984C16.3886 47.2038 16.3463 47.2085 16.3154 47.2128C16.1915 47.2158 16.0693 47.2178 15.9478 47.2189C15.8674 47.2196 15.7874 47.22 15.7074 47.22H15.7052C3.87556 47.2192 0.975717 38.5588 0.278085 34.8357C0.267648 34.7799 0.258066 34.7283 0.247629 34.6814C0.238168 34.6389 0.228036 34.6002 0.215952 34.5656C-0.421805 30.3463 0.456369 26.9875 1.50318 24.6721L1.50282 24.6718C1.50282 24.6718 5.02418 16.1359 14.322 13.1838C14.4349 13.1469 14.547 13.1109 14.6576 13.0764C14.6808 13.0696 14.7028 13.0617 14.726 13.0549L14.7249 13.0563C17.514 12.203 19.6077 12.1793 19.7922 12.1793C19.8434 12.1793 19.8776 12.1801 19.9198 12.1829C26.6998 12.2437 29.454 14.7815 29.9377 15.2899C29.9469 15.2996 29.9572 15.3107 29.97 15.3222C31.2025 16.5832 31.8002 18.0149 31.7458 19.5788C31.6455 22.4543 29.4363 24.7522 29.3246 24.8643C29.3135 24.8729 29.3037 24.8819 29.2941 24.892C27.8521 26.4026 26.0991 27.1686 24.0844 27.1686C22.6561 27.1686 21.5007 26.7709 21.0361 26.5841C21.2887 25.1046 21.2152 22.9106 20.9762 22.2891L20.9972 22.2826C20.412 20.455 19.4879 19.5284 18.2514 19.5284C17.7846 19.5284 17.3314 19.6664 16.9223 19.8619C16.9223 19.8619 12.2199 21.5479 12.7032 29.9382C12.7073 30.0287 12.7135 30.1164 12.719 30.2048C12.7205 30.2262 12.7215 30.2471 12.7225 30.2679C12.7239 30.2952 12.7252 30.3223 12.7275 30.3506L12.7279 30.3503C12.8918 32.6068 13.5372 34.1667 13.6729 34.457L13.6652 34.461C15.1343 37.0524 17.5078 38.3662 20.7204 38.3662C25.6213 38.3662 30.8497 35.2798 31.6285 34.6356L31.6311 34.6392C32.3468 34.1873 32.6729 34.1197 32.8041 34.1197Z" fill="white"/>
</svg>
